<svg width="20" height="20" viewBox="0 0 20 20" fill="none" xmlns="http://www.w3.org/2000/svg">
<path d="M8.33317 13.0001L5.77046 15.5948C5.41299 15.9568 5.23426 16.1377 5.08063 16.1505C4.94735 16.1616 4.81685 16.108 4.7298 16.0064C4.62947 15.8894 4.62947 15.6351 4.62947 15.1264V13.8264C4.62947 13.37 4.25573 13.0398 3.80417 12.9737V12.9737C2.71129 12.8136 1.85298 11.9553 1.6929 10.8624C1.6665 10.6822 1.6665 10.4672 1.6665 10.0371V6.16675C1.6665 4.76662 1.6665 4.06655 1.93899 3.53177C2.17867 3.06137 2.56112 2.67892 3.03153 2.43923C3.56631 2.16675 4.26637 2.16675 5.6665 2.16675H11.8332C13.2333 2.16675 13.9334 2.16675 14.4681 2.43923C14.9386 2.67892 15.321 3.06137 15.5607 3.53177C15.8332 4.06655 15.8332 4.76662 15.8332 6.16675V9.66675M15.8332 18.8334L14.0195 17.5725C13.7645 17.3952 13.6371 17.3066 13.4983 17.2438C13.3752 17.188 13.2457 17.1474 13.1128 17.1229C12.963 17.0953 12.8078 17.0953 12.4973 17.0953H10.9998C10.0664 17.0953 9.59971 17.0953 9.24319 16.9137C8.92958 16.7539 8.67462 16.4989 8.51483 16.1853C8.33317 15.8288 8.33317 15.3621 8.33317 14.4287V12.3334C8.33317 11.4 8.33317 10.9333 8.51483 10.5768C8.67462 10.2632 8.92958 10.0082 9.24319 9.8484C9.59971 9.66675 10.0664 9.66675 10.9998 9.66675H15.6665C16.5999 9.66675 17.0666 9.66675 17.4232 9.8484C17.7368 10.0082 17.9917 10.2632 18.1515 10.5768C18.3332 10.9333 18.3332 11.4 18.3332 12.3334V14.5953C18.3332 15.3719 18.3332 15.7602 18.2063 16.0665C18.0371 16.4748 17.7127 16.7993 17.3043 16.9685C16.998 17.0953 16.6097 17.0953 15.8332 17.0953V18.8334Z" stroke="white" stroke-width="1.6" stroke-linecap="round" stroke-linejoin="round"/>
</svg>
