<svg width="25" height="25" viewBox="0 0 25 25" fill="none" xmlns="http://www.w3.org/2000/svg">
    <path d="M8.5 8.5V5.7C8.5 4.5799 8.5 4.01984 8.71799 3.59202C8.90973 3.21569 9.21569 2.90973 9.59202 2.71799C10.0198 2.5 10.5799 2.5 11.7 2.5H19.3C20.4201 2.5 20.9802 2.5 21.408 2.71799C21.7843 2.90973 22.0903 3.21569 22.282 3.59202C22.5 4.01984 22.5 4.5799 22.5 5.7V13.3C22.5 14.4201 22.5 14.9802 22.282 15.408C22.0903 15.7843 21.7843 16.0903 21.408 16.282C20.9802 16.5 20.4201 16.5 19.3 16.5H16.5M5.7 22.5H13.3C14.4201 22.5 14.9802 22.5 15.408 22.282C15.7843 22.0903 16.0903 21.7843 16.282 21.408C16.5 20.9802 16.5 20.4201 16.5 19.3V11.7C16.5 10.5799 16.5 10.0198 16.282 9.59202C16.0903 9.21569 15.7843 8.90973 15.408 8.71799C14.9802 8.5 14.4201 8.5 13.3 8.5H5.7C4.5799 8.5 4.01984 8.5 3.59202 8.71799C3.21569 8.90973 2.90973 9.21569 2.71799 9.59202C2.5 10.0198 2.5 10.5799 2.5 11.7V19.3C2.5 20.4201 2.5 20.9802 2.71799 21.408C2.90973 21.7843 3.21569 22.0903 3.59202 22.282C4.01984 22.5 4.57989 22.5 5.7 22.5Z" stroke="currentColor" stroke-width="2" stroke-linecap="round" stroke-linejoin="round"/>
</svg>
