<svg width="20" height="20" viewBox="0 0 20 20" fill="none" xmlns="http://www.w3.org/2000/svg">
    <g clip-path="url(#clip0_6109_7321)">
        <path d="M9.99984 5.00002V18.3334M9.99984 5.00002H7.05341C6.61927 5.00002 6.20292 4.82443 5.89594 4.51187C5.58896 4.1993 5.4165 3.77538 5.4165 3.33335C5.4165 2.89133 5.58896 2.4674 5.89594 2.15484C6.20292 1.84228 6.61927 1.66669 7.05341 1.66669C9.34508 1.66669 9.99984 5.00002 9.99984 5.00002ZM9.99984 5.00002H12.9463C13.3804 5.00002 13.7968 4.82443 14.1037 4.51187C14.4107 4.1993 14.5832 3.77538 14.5832 3.33335C14.5832 2.89133 14.4107 2.4674 14.1037 2.15484C13.7968 1.84228 13.3804 1.66669 12.9463 1.66669C10.6546 1.66669 9.99984 5.00002 9.99984 5.00002ZM16.6665 9.16669V15.6667C16.6665 16.6001 16.6665 17.0668 16.4848 17.4233C16.3251 17.7369 16.0701 17.9919 15.7565 18.1517C15.4 18.3334 14.9333 18.3334 13.9998 18.3334L5.99984 18.3334C5.06642 18.3334 4.59971 18.3334 4.24319 18.1517C3.92958 17.9919 3.67462 17.7369 3.51483 17.4233C3.33317 17.0668 3.33317 16.6001 3.33317 15.6667V9.16669M1.6665 6.33335L1.6665 7.83335C1.6665 8.30006 1.6665 8.53342 1.75733 8.71168C1.83723 8.86848 1.96471 8.99596 2.12151 9.07586C2.29977 9.16669 2.53313 9.16669 2.99984 9.16669L16.9998 9.16669C17.4665 9.16669 17.6999 9.16669 17.8782 9.07586C18.035 8.99596 18.1624 8.86848 18.2423 8.71168C18.3332 8.53342 18.3332 8.30006 18.3332 7.83335V6.33335C18.3332 5.86664 18.3332 5.63329 18.2423 5.45503C18.1624 5.29823 18.035 5.17074 17.8782 5.09085C17.6999 5.00002 17.4665 5.00002 16.9998 5.00002L2.99984 5.00002C2.53313 5.00002 2.29977 5.00002 2.12151 5.09085C1.96471 5.17074 1.83723 5.29823 1.75733 5.45503C1.6665 5.63329 1.6665 5.86664 1.6665 6.33335Z" stroke="currentColor" stroke-width="1.6" stroke-linecap="round" stroke-linejoin="round"/>
    </g>
    <defs>
        <clipPath id="clip0_6109_7321">
            <rect width="20" height="20" fill="white"/>
        </clipPath>
    </defs>
</svg>
