<svg width="20" height="20" viewBox="0 0 20 20" fill="none" xmlns="http://www.w3.org/2000/svg">
    <g clip-path="url(#clip0_6109_7302)">
        <path d="M7.49984 7.50002H7.50817M12.4998 12.5H12.5082M13.3332 6.66669L6.6665 13.3334M7.9165 7.50002C7.9165 7.73014 7.72996 7.91669 7.49984 7.91669C7.26972 7.91669 7.08317 7.73014 7.08317 7.50002C7.08317 7.2699 7.26972 7.08335 7.49984 7.08335C7.72996 7.08335 7.9165 7.2699 7.9165 7.50002ZM12.9165 12.5C12.9165 12.7301 12.73 12.9167 12.4998 12.9167C12.2697 12.9167 12.0832 12.7301 12.0832 12.5C12.0832 12.2699 12.2697 12.0834 12.4998 12.0834C12.73 12.0834 12.9165 12.2699 12.9165 12.5ZM18.3332 10C18.3332 14.6024 14.6022 18.3334 9.99984 18.3334C5.39746 18.3334 1.6665 14.6024 1.6665 10C1.6665 5.39765 5.39746 1.66669 9.99984 1.66669C14.6022 1.66669 18.3332 5.39765 18.3332 10Z" stroke="currentColor" stroke-width="1.6" stroke-linecap="round" stroke-linejoin="round"/>
    </g>
    <defs>
        <clipPath id="clip0_6109_7302">
            <rect width="20" height="20" fill="white"/>
        </clipPath>
    </defs>
</svg>
