<svg width="16" height="17" viewBox="0 0 16 17" fill="none" xmlns="http://www.w3.org/2000/svg">
    <path fill-rule="evenodd" clip-rule="evenodd" d="M6.06336 16.2605C10.3496 17.3292 14.6904 14.721 15.7588 10.4352L15.7587 10.4353C16.8273 6.14936 14.2192 1.80785 9.93329 0.739387C5.64835 -0.329071 1.30758 2.27935 0.239588 6.56558C-0.829339 10.851 1.77889 15.192 6.06336 16.2605ZM5.5 4.5V12.5H7.13758V9.88523H8.58188C9.19754 9.88523 9.72013 9.77248 10.1497 9.54698C10.5828 9.3179 10.9121 9.00291 11.1376 8.60201C11.3667 8.19754 11.4812 7.73043 11.4812 7.20067C11.4812 6.6745 11.3685 6.20917 11.143 5.8047C10.921 5.39664 10.5971 5.07808 10.1711 4.84899C9.74519 4.61633 9.22796 4.5 8.61946 4.5H5.5ZM7.13758 8.56443H8.31879C8.65526 8.56443 8.93087 8.50716 9.14564 8.39262C9.36398 8.2745 9.52506 8.11342 9.62886 7.9094C9.73624 7.70537 9.78993 7.46913 9.78993 7.20067C9.78993 6.93221 9.73624 6.69776 9.62886 6.49732C9.52506 6.29329 9.36398 6.13579 9.14564 6.02483C8.92729 5.91029 8.64989 5.85302 8.31342 5.85302H7.13758V8.56443Z" fill="currentColor"/>
</svg>
