<svg width="20" height="20" viewBox="0 0 20 20" fill="none" xmlns="http://www.w3.org/2000/svg">
    <g clip-path="url(#clip0_6109_7289)">
        <path d="M9.58317 4.16669H9.94517C12.4845 4.16669 13.7542 4.16669 14.2362 4.62276C14.6528 5.01699 14.8375 5.59775 14.725 6.1602C14.5948 6.81087 13.5583 7.54407 11.4851 9.01046L8.09794 11.4062C6.02476 12.8726 4.98816 13.6058 4.85803 14.2565C4.74555 14.819 4.93018 15.3997 5.34681 15.7939C5.82878 16.25 7.09847 16.25 9.63784 16.25H10.4165M6.6665 4.16669C6.6665 5.5474 5.54722 6.66669 4.1665 6.66669C2.78579 6.66669 1.6665 5.5474 1.6665 4.16669C1.6665 2.78598 2.78579 1.66669 4.1665 1.66669C5.54722 1.66669 6.6665 2.78598 6.6665 4.16669ZM18.3332 15.8334C18.3332 17.2141 17.2139 18.3334 15.8332 18.3334C14.4525 18.3334 13.3332 17.2141 13.3332 15.8334C13.3332 14.4526 14.4525 13.3334 15.8332 13.3334C17.2139 13.3334 18.3332 14.4526 18.3332 15.8334Z" stroke="currentColor" stroke-width="1.6" stroke-linecap="round" stroke-linejoin="round"/>
    </g>
    <defs>
        <clipPath id="clip0_6109_7289">
            <rect width="20" height="20" fill="white"/>
        </clipPath>
    </defs>
</svg>
