<svg width="20" height="20" viewBox="0 0 20 20" fill="none" xmlns="http://www.w3.org/2000/svg">
    <path d="M1.6665 14.1667V14.0415C1.6665 13.7778 1.6665 13.6459 1.68668 13.5174C1.70459 13.4033 1.7343 13.2914 1.77535 13.1835C1.82158 13.062 1.887 12.9475 2.01786 12.7185L4.99984 7.5M1.6665 14.1667C1.6665 16.0076 3.15889 17.5 4.99984 17.5C6.84079 17.5 8.33317 16.0076 8.33317 14.1667M1.6665 14.1667V14C1.6665 13.7666 1.6665 13.65 1.71192 13.5608C1.75187 13.4824 1.81561 13.4187 1.89401 13.3787C1.98314 13.3333 2.09982 13.3333 2.33317 13.3333H7.6665C7.89986 13.3333 8.01654 13.3333 8.10567 13.3787C8.18407 13.4187 8.24781 13.4824 8.28776 13.5608C8.33317 13.65 8.33317 13.7666 8.33317 14V14.1667M4.99984 7.5L7.98182 12.7185C8.11267 12.9475 8.1781 13.062 8.22433 13.1835C8.26537 13.2914 8.29509 13.4033 8.313 13.5174C8.33317 13.6459 8.33317 13.7778 8.33317 14.0415V14.1667M4.99984 7.5L14.9998 5.83333M11.6665 12.5V12.3748C11.6665 12.1111 11.6665 11.9792 11.6867 11.8507C11.7046 11.7367 11.7343 11.6248 11.7753 11.5168C11.8216 11.3953 11.887 11.2808 12.0179 11.0518L14.9998 5.83333M11.6665 12.5C11.6665 14.3409 13.1589 15.8333 14.9998 15.8333C16.8408 15.8333 18.3332 14.3409 18.3332 12.5M11.6665 12.5V12.3333C11.6665 12.1 11.6665 11.9833 11.7119 11.8942C11.7519 11.8158 11.8156 11.752 11.894 11.7121C11.9831 11.6667 12.0998 11.6667 12.3332 11.6667H17.6665C17.8999 11.6667 18.0165 11.6667 18.1057 11.7121C18.1841 11.752 18.2478 11.8158 18.2878 11.8942C18.3332 11.9833 18.3332 12.1 18.3332 12.3333V12.5M14.9998 5.83333L17.9818 11.0518C18.1127 11.2808 18.1781 11.3953 18.2243 11.5168C18.2654 11.6248 18.2951 11.7367 18.313 11.8507C18.3332 11.9792 18.3332 12.1111 18.3332 12.3748V12.5M9.99984 2.5V6.66667" stroke="currentColor" stroke-width="1.6" stroke-linecap="round" stroke-linejoin="round"/>
</svg>
