<svg width="231" height="32" viewBox="0 0 231 32" fill="none" xmlns="http://www.w3.org/2000/svg">
<path d="M22 0H10C4.47715 0 0 4.47715 0 10V22C0 27.5228 4.47715 32 10 32H22C27.5228 32 32 27.5228 32 22V10C32 4.47715 27.5228 0 22 0Z" fill="#FFDD00"/>
<path d="M16 16V7H25L16 16Z" fill="#0F0F0F"/>
<path d="M16 7V16H7C7 11.03 11.03 7 16 7Z" fill="#0F0F0F"/>
<path d="M16 16V25H7L16 16Z" fill="#0F0F0F"/>
<path d="M16 25V16H25C25 20.97 20.97 25 16 25Z" fill="#0F0F0F"/>
<path d="M224.997 23.1201H221.546V11.7204H216.411V8.74207H230.132V11.7204H224.997V23.1201Z" fill="white"/>
<path d="M214.831 23.1201H201.891V8.74207H214.625V11.6177H205.321V14.3906H212.571V17.1635H205.321V20.2445H214.831V23.1201Z" fill="white"/>
<path d="M188.175 23.1201H184.745V8.74207H188.175V15.2327L195.302 8.74207H199.575L193.105 14.6371L199.986 23.1201H195.939L190.763 16.7527L188.175 19.1148V23.1201Z" fill="white"/>
<path d="M181.913 23.1201H178.01L174.724 18.1905H171.232V23.1201H167.802V8.74207H175.402C176.648 8.74207 177.716 8.94747 178.606 9.35827C179.51 9.76907 180.194 10.3305 180.66 11.0426C181.126 11.7546 181.358 12.5625 181.358 13.4663C181.358 14.4385 181.091 15.3012 180.557 16.0543C180.037 16.7938 179.277 17.3484 178.277 17.7181L181.913 23.1201ZM171.232 11.6177V15.3149H175.34C176.134 15.3149 176.757 15.1506 177.209 14.8219C177.675 14.4796 177.908 14.0277 177.908 13.4663C177.908 12.9049 177.675 12.4598 177.209 12.1312C176.757 11.7889 176.134 11.6177 175.34 11.6177H171.232Z" fill="white"/>
<path d="M151.683 23.1201H148.068L154.743 8.74207H158.913L165.588 23.1201H161.85L160.433 19.9159H153.121L151.683 23.1201ZM156.777 11.8025L154.332 17.2046H159.262L156.838 11.8025H156.777Z" fill="white"/>
<path d="M131.024 23.1201H127.594V8.74207H130.839L136.734 15.0684H136.796L142.67 8.74207H145.874V23.1201H142.424V13.3636H142.362L136.734 19.4024L131.086 13.3636H131.024V23.1201Z" fill="white"/>
<path d="M122.782 23.3254C122.248 23.3254 121.816 23.1679 121.488 22.8529C121.159 22.5243 120.995 22.134 120.995 21.6821C120.995 21.2166 121.159 20.8263 121.488 20.5114C121.816 20.1964 122.248 20.0389 122.782 20.0389C123.302 20.0389 123.727 20.1964 124.055 20.5114C124.384 20.8263 124.548 21.2166 124.548 21.6821C124.548 22.134 124.384 22.5243 124.055 22.8529C123.727 23.1679 123.302 23.3254 122.782 23.3254Z" fill="white"/>
<path d="M105.86 23.1201H102.245L108.92 8.74207H113.09L119.766 23.1201H116.027L114.61 19.9159H107.298L105.86 23.1201ZM110.954 11.8025L108.51 17.2046H113.439L111.016 11.8025H110.954Z" fill="white"/>
<path d="M101.623 23.1201H89.9766V8.74207H93.4068V20.1418H101.623V23.1201Z" fill="white"/>
<path d="M87.5474 23.1201H75.9011V8.74207H79.3313V20.1418H87.5474V23.1201Z" fill="white"/>
<path d="M72.7188 23.1201H59.7786V8.74207H72.5134V11.6177H63.2088V14.3906H70.4594V17.1635H63.2088V20.2445H72.7188V23.1201Z" fill="white"/>
<path d="M50.6402 23.4285C49.4352 23.4285 48.3671 23.2847 47.436 22.9971C46.5048 22.6959 45.7654 22.3672 45.2176 22.0112C44.6699 21.6415 44.2797 21.3334 44.0469 21.0869L45.9571 18.9097C46.1351 19.0877 46.4295 19.3136 46.8403 19.5875C47.2648 19.8477 47.792 20.0805 48.4219 20.2859C49.0655 20.4913 49.757 20.594 50.4965 20.594C51.3865 20.594 52.078 20.4502 52.571 20.1626C53.064 19.8614 53.3104 19.4779 53.3104 19.0124C53.3104 18.6837 53.1735 18.4099 52.8997 18.1908C52.6258 17.958 52.2766 17.7731 51.8521 17.6362C51.4276 17.4855 50.8456 17.3144 50.1062 17.1227C48.9833 16.8351 48.0522 16.5476 47.3127 16.26C46.587 15.9587 45.9571 15.5205 45.4231 14.9454C44.9027 14.3703 44.6425 13.6172 44.6425 12.686C44.6425 11.8644 44.8822 11.1318 45.3614 10.4882C45.8407 9.84463 46.5254 9.34482 47.4154 8.98879C48.3055 8.61907 49.3599 8.4342 50.5786 8.4342C51.9753 8.4342 53.194 8.6533 54.2347 9.09149C55.2754 9.51598 56.056 9.95417 56.5763 10.4061L54.6456 12.6244C54.5086 12.4875 54.2553 12.3094 53.8856 12.0903C53.5296 11.8713 53.0776 11.6795 52.5299 11.5152C51.9822 11.3372 51.4002 11.2482 50.784 11.2482C50.0035 11.2482 49.3804 11.3851 48.9149 11.659C48.463 11.9329 48.237 12.2684 48.237 12.6655C48.237 13.1037 48.4835 13.4391 48.9765 13.6719C49.4695 13.9047 50.2637 14.1649 51.3591 14.4525C52.5094 14.7537 53.4542 15.055 54.1937 15.3562C54.9331 15.6438 55.5699 16.082 56.1039 16.6708C56.638 17.2596 56.905 18.0264 56.905 18.9713C56.905 19.834 56.6516 20.6076 56.145 21.2923C55.652 21.9633 54.9331 22.4905 53.9883 22.8739C53.0434 23.2436 51.9274 23.4285 50.6402 23.4285Z" fill="white"/>
</svg>
