<?xml version="1.0" encoding="UTF-8" standalone="no"?>
<svg
   width="164"
   height="32"
   viewBox="0 0 164 32"
   fill="none"
   version="1.1"
   id="svg12"
   sodipodi:docname="logo.svg"
   inkscape:version="1.3.2 (091e20e, 2023-11-25, custom)"
   xmlns:inkscape="http://www.inkscape.org/namespaces/inkscape"
   xmlns:sodipodi="http://sodipodi.sourceforge.net/DTD/sodipodi-0.dtd"
   xmlns="http://www.w3.org/2000/svg"
   xmlns:svg="http://www.w3.org/2000/svg">
  <defs
     id="defs12" />
  <sodipodi:namedview
     id="namedview12"
     pagecolor="#ffffff"
     bordercolor="#000000"
     borderopacity="0.25"
     inkscape:showpageshadow="2"
     inkscape:pageopacity="0.0"
     inkscape:pagecheckerboard="0"
     inkscape:deskcolor="#d1d1d1"
     inkscape:zoom="3.5355339"
     inkscape:cx="70.286414"
     inkscape:cy="7.2124892"
     inkscape:window-width="2560"
     inkscape:window-height="1377"
     inkscape:window-x="-8"
     inkscape:window-y="558"
     inkscape:window-maximized="1"
     inkscape:current-layer="svg12" />
  <rect
     width="32"
     height="32"
     rx="10"
     fill="#FFDD00"
     id="rect1" />
  <path
     d="M16 16V7H25L16 16Z"
     fill="#0A0A0A"
     id="path1" />
  <path
     d="M16 7V16H7C7 11.03 11.03 7 16 7Z"
     fill="#0A0A0A"
     id="path2" />
  <path
     d="M16 16V25H7L16 16Z"
     fill="#0A0A0A"
     id="path3" />
  <path
     d="M16 25V16H25C25 20.97 20.97 25 16 25Z"
     fill="#0A0A0A"
     id="path4" />
  <path
     style="font-weight:bold;font-size:26.1422px;font-family:Inter;-inkscape-font-specification:'Inter Bold';letter-spacing:0px;fill:#ffffff;stroke:#4f8aa4;stroke-width:0.098033"
     d="m 48.435024,13.222595 q -0.111401,-1.123298 -0.956195,-1.745289 -0.844795,-0.621992 -2.293013,-0.621992 -0.984046,0 -1.661738,0.278504 -0.677692,0.26922 -1.039747,0.75196 -0.352771,0.482739 -0.352771,1.095447 -0.01857,0.51059 0.21352,0.891211 0.241369,0.380622 0.659125,0.659125 0.417755,0.26922 0.965479,0.473456 0.547723,0.194953 1.169715,0.334205 l 1.708155,0.408472 q 1.243982,0.278503 2.283729,0.742676 1.039747,0.464172 1.80099,1.141864 0.761243,0.677692 1.178998,1.596754 0.427039,0.919062 0.436322,2.107344 -0.0093,1.745288 -0.891211,3.026405 -0.872645,1.271833 -2.525099,1.977375 -1.643171,0.696259 -3.964034,0.696259 -2.302296,0 -4.010451,-0.705542 -1.698872,-0.705543 -2.655067,-2.088777 -0.946912,-1.392518 -0.99333,-3.444161 h 3.889767 q 0.06498,0.956196 0.547723,1.596754 0.492023,0.631275 1.308967,0.956196 0.826227,0.315637 1.865974,0.315637 1.021179,0 1.773139,-0.297071 0.761243,-0.29707 1.178998,-0.826227 0.417756,-0.529156 0.417756,-1.216132 0,-0.640558 -0.380622,-1.07688 -0.371338,-0.436323 -1.095447,-0.742676 -0.714826,-0.306354 -1.754572,-0.557008 l -2.07021,-0.519873 q -2.404414,-0.584857 -3.796932,-1.82884 -1.392518,-1.243982 -1.383234,-3.351326 -0.0093,-1.726722 0.919061,-3.017122 0.937629,-1.2903997 2.571517,-2.014509 1.633887,-0.7241092 3.71338,-0.7241092 2.116627,0 3.694814,0.7241092 1.58747,0.7241093 2.469398,2.014509 0.881928,1.2904 0.909779,2.989272 z M 55.23978,26.767151 V 7.7546414 h 12.811164 v 3.3141926 h -8.791429 v 4.530324 h 8.132304 v 3.314193 h -8.132304 v 4.539608 h 8.828563 v 3.314192 z m 16.013974,0 V 7.7546414 h 4.019734 V 23.452959 h 8.150871 v 3.314192 z m 14.83498,0 V 7.7546414 h 4.019734 V 23.452959 h 8.150871 v 3.314192 z m 18.585476,0 h -4.30752 l 6.5634,-19.0125096 h 5.18017 l 6.55412,19.0125096 h -4.30753 l -4.76241,-14.667854 h -0.14853 z m -0.26922,-7.473179 h 10.17467 v 3.137807 h -10.17467 z"
     id="text12"
     transform="scale(1.0790961,0.92670153)"
     aria-label="SELLA" />
</svg>
